<svg width="40" height="39" viewBox="0 0 40 39" fill="none" xmlns="http://www.w3.org/2000/svg">
<g filter="url(#filter0_dd_2337_36422)">
<rect x="3" y="2" width="34" height="34" rx="4" fill="white"/>
</g>
<path d="M19.9992 13.299C20.266 13.299 20.5219 13.193 20.7106 13.0043C20.8992 12.8157 21.0052 12.5598 21.0052 12.293C21.0052 12.0262 20.8992 11.7703 20.7106 11.5816C20.5219 11.393 20.266 11.287 19.9992 11.287C19.7324 11.287 19.4765 11.393 19.2879 11.5816C19.0992 11.7703 18.9932 12.0262 18.9932 12.293C18.9932 12.5598 19.0992 12.8157 19.2879 13.0043C19.4765 13.193 19.7324 13.299 19.9992 13.299ZM26.7073 13.299C26.8394 13.299 26.9702 13.2729 27.0923 13.2224C27.2143 13.1718 27.3252 13.0977 27.4186 13.0043C27.5121 12.9109 27.5862 12.8 27.6367 12.678C27.6873 12.5559 27.7133 12.4251 27.7133 12.293C27.7133 12.1609 27.6873 12.0301 27.6367 11.908C27.5862 11.7859 27.5121 11.6751 27.4186 11.5816C27.3252 11.4882 27.2143 11.4141 27.0923 11.3636C26.9702 11.313 26.8394 11.287 26.7073 11.287C26.4405 11.287 26.1846 11.393 25.996 11.5816C25.8073 11.7703 25.7013 12.0262 25.7013 12.293C25.7013 12.5598 25.8073 12.8157 25.996 13.0043C26.1846 13.193 26.4405 13.299 26.7073 13.299ZM13.2911 13.299C13.4233 13.299 13.5541 13.2729 13.6761 13.2224C13.7982 13.1718 13.9091 13.0977 14.0025 13.0043C14.0959 12.9109 14.17 12.8 14.2206 12.678C14.2711 12.5559 14.2971 12.4251 14.2971 12.293C14.2971 12.1609 14.2711 12.0301 14.2206 11.908C14.17 11.7859 14.0959 11.6751 14.0025 11.5816C13.9091 11.4882 13.7982 11.4141 13.6761 11.3636C13.5541 11.313 13.4233 11.287 13.2911 11.287C13.0243 11.287 12.7685 11.393 12.5798 11.5816C12.3911 11.7703 12.2852 12.0262 12.2852 12.293C12.2852 12.5598 12.3911 12.8157 12.5798 13.0043C12.7685 13.193 13.0243 13.299 13.2911 13.299ZM19.9992 20.0059C20.266 20.0059 20.5219 19.9 20.7106 19.7113C20.8992 19.5226 21.0052 19.2668 21.0052 19C21.0052 18.7331 20.8992 18.4773 20.7106 18.2886C20.5219 18.0999 20.266 17.994 19.9992 17.994C19.7324 17.994 19.4765 18.0999 19.2879 18.2886C19.0992 18.4773 18.9932 18.7331 18.9932 19C18.9932 19.2668 19.0992 19.5226 19.2879 19.7113C19.4765 19.9 19.7324 20.0059 19.9992 20.0059ZM26.7073 20.0059C26.9741 20.0059 27.23 19.9 27.4186 19.7113C27.6073 19.5226 27.7133 19.2668 27.7133 19C27.7133 18.7331 27.6073 18.4773 27.4186 18.2886C27.23 18.0999 26.9741 17.994 26.7073 17.994C26.4405 17.994 26.1846 18.0999 25.996 18.2886C25.8073 18.4773 25.7013 18.7331 25.7013 19C25.7013 19.2668 25.8073 19.5226 25.996 19.7113C26.1846 19.9 26.4405 20.0059 26.7073 20.0059ZM13.2911 20.0059C13.558 20.0059 13.8138 19.9 14.0025 19.7113C14.1911 19.5226 14.2971 19.2668 14.2971 19C14.2971 18.7331 14.1911 18.4773 14.0025 18.2886C13.8138 18.0999 13.558 17.994 13.2911 17.994C13.0243 17.994 12.7685 18.0999 12.5798 18.2886C12.3911 18.4773 12.2852 18.7331 12.2852 19C12.2852 19.2668 12.3911 19.5226 12.5798 19.7113C12.7685 19.9 13.0243 20.0059 13.2911 20.0059ZM19.9992 26.7129C20.266 26.7129 20.5219 26.6069 20.7106 26.4183C20.8992 26.2296 21.0052 25.9737 21.0052 25.7069C21.0052 25.4401 20.8992 25.1842 20.7106 24.9956C20.5219 24.8069 20.266 24.7009 19.9992 24.7009C19.7324 24.7009 19.4765 24.8069 19.2879 24.9956C19.0992 25.1842 18.9932 25.4401 18.9932 25.7069C18.9932 25.9737 19.0992 26.2296 19.2879 26.4183C19.4765 26.6069 19.7324 26.7129 19.9992 26.7129ZM26.7073 26.7129C26.9741 26.7129 27.23 26.6069 27.4186 26.4183C27.6073 26.2296 27.7133 25.9737 27.7133 25.7069C27.7133 25.4401 27.6073 25.1842 27.4186 24.9956C27.23 24.8069 26.9741 24.7009 26.7073 24.7009C26.4405 24.7009 26.1846 24.8069 25.996 24.9956C25.8073 25.1842 25.7013 25.4401 25.7013 25.7069C25.7013 25.9737 25.8073 26.2296 25.996 26.4183C26.1846 26.6069 26.4405 26.7129 26.7073 26.7129ZM13.2911 26.7129C13.558 26.7129 13.8138 26.6069 14.0025 26.4183C14.1911 26.2296 14.2971 25.9737 14.2971 25.7069C14.2971 25.4401 14.1911 25.1842 14.0025 24.9956C13.8138 24.8069 13.558 24.7009 13.2911 24.7009C13.0243 24.7009 12.7685 24.8069 12.5798 24.9956C12.3911 25.1842 12.2852 25.4401 12.2852 25.7069C12.2852 25.9737 12.3911 26.2296 12.5798 26.4183C12.7685 26.6069 13.0243 26.7129 13.2911 26.7129Z" stroke="#00BBBB" stroke-width="1.73148" stroke-linecap="round" stroke-linejoin="round"/>
<defs>
<filter id="filter0_dd_2337_36422" x="0.64697" y="0.235227" width="38.7061" height="38.7061" filterUnits="userSpaceOnUse" color-interpolation-filters="sRGB">
<feFlood flood-opacity="0" result="BackgroundImageFix"/>
<feColorMatrix in="SourceAlpha" type="matrix" values="0 0 0 0 0 0 0 0 0 0 0 0 0 0 0 0 0 0 127 0" result="hardAlpha"/>
<feOffset dy="0.588258"/>
<feGaussianBlur stdDeviation="1.17652"/>
<feColorMatrix type="matrix" values="0 0 0 0 0.376471 0 0 0 0 0.380392 0 0 0 0 0.439216 0 0 0 0.16 0"/>
<feBlend mode="normal" in2="BackgroundImageFix" result="effect1_dropShadow_2337_36422"/>
<feColorMatrix in="SourceAlpha" type="matrix" values="0 0 0 0 0 0 0 0 0 0 0 0 0 0 0 0 0 0 127 0" result="hardAlpha"/>
<feOffset/>
<feGaussianBlur stdDeviation="0.588258"/>
<feColorMatrix type="matrix" values="0 0 0 0 0.156863 0 0 0 0 0.160784 0 0 0 0 0.239216 0 0 0 0.08 0"/>
<feBlend mode="normal" in2="effect1_dropShadow_2337_36422" result="effect2_dropShadow_2337_36422"/>
<feBlend mode="normal" in="SourceGraphic" in2="effect2_dropShadow_2337_36422" result="shape"/>
</filter>
</defs>
</svg>
